<svg width="48" height="48" viewBox="0 0 48 48" fill="none" xmlns="http://www.w3.org/2000/svg">
<path d="M28.1756 11.4331L28.102 11.463L28.1289 11.4331H28.1756ZM11.0979 14.5926C15.2021 11.271 19.0015 11.4304 19.0015 11.4304L19.3086 11.766C14.2894 13.0987 12.0137 15.594 12.0137 15.594C12.2464 15.5394 22.383 9.03196 34.6631 15.7588C34.6631 15.7588 32.3827 13.4246 27.6721 11.9307L28.0885 11.4753C28.7399 11.4753 32.1864 11.6119 35.8742 14.6128C35.8742 14.6128 40.0005 22.4574 40.0005 32.0944C39.8644 31.9103 37.4407 36.2439 31.2032 36.3928C31.2032 36.3928 30.1473 35.0636 29.3953 33.9027C33.0428 32.7374 34.4082 30.4068 34.4082 30.4068C27.3072 35.3816 21.0833 34.6047 13.6379 31.2435C13.6116 31.2435 13.5856 31.2367 13.562 31.2238C13.5384 31.2108 13.5178 31.1919 13.5018 31.1687V31.1537C13.4853 31.1308 13.4645 31.1122 13.4408 31.0993C13.4172 31.0863 13.3912 31.0794 13.3649 31.0788H13.2311C12.9862 30.8963 12.7319 30.7299 12.4696 30.5803C12.4696 30.5803 13.8327 32.9118 17.3392 34.0771C16.4195 35.2451 15.5084 36.5725 15.5084 36.5725C9.27333 36.4078 7 32.075 7 32.075C7 22.4221 11.1018 14.5926 11.1018 14.5926H11.0979ZM28.5793 29.0838C30.1703 29.0838 31.466 27.5864 31.466 25.7472C31.466 23.9081 30.1766 22.4239 28.5793 22.4239V22.4318C26.9962 22.4318 25.6964 23.9213 25.6925 25.764C25.6917 27.5899 26.9875 29.0838 28.5793 29.0838ZM18.2448 29.0838C19.8358 29.0838 21.1316 27.5864 21.1316 25.7472C21.1316 23.9081 19.8437 22.4239 18.2527 22.4239L18.244 22.4318C16.6522 22.4301 15.3604 23.9213 15.3604 25.7622C15.3604 27.5899 16.6522 29.0838 18.244 29.0838H18.2448Z" fill="white"/>
</svg>
