<svg width="44" height="44" viewBox="0 0 44 44" fill="none" xmlns="http://www.w3.org/2000/svg">
<path d="M37.2722 7.84749C34.424 6.51725 31.3786 5.55048 28.1946 5C27.8036 5.7057 27.3468 6.65489 27.0318 7.40996C23.6472 6.90186 20.2938 6.90186 16.9715 7.40996C16.6566 6.65489 16.1894 5.7057 15.7948 5C12.6075 5.55048 9.55855 6.5208 6.71035 7.85454C0.965512 16.5204 -0.59182 24.971 0.186847 33.3016C3.99713 36.142 7.68975 37.8674 11.3201 38.9965C12.2164 37.7651 13.0158 36.456 13.7045 35.0764C12.3929 34.5789 11.1366 33.965 9.94964 33.2522C10.2645 33.0193 10.5726 32.7758 10.8702 32.5253C18.11 35.9056 25.9763 35.9056 33.1297 32.5253C33.4308 32.7758 33.7387 33.0193 34.0502 33.2522C32.8597 33.9685 31.6 34.5824 30.2884 35.08C30.9771 36.456 31.7731 37.7686 32.6729 39C36.3067 37.8709 40.0027 36.1455 43.813 33.3016C44.7266 23.6443 42.2522 15.2713 37.2722 7.84749ZM14.6908 28.1783C12.5175 28.1783 10.7352 26.153 10.7352 23.6866C10.7352 21.2202 12.4794 19.1914 14.6908 19.1914C16.9023 19.1914 18.6845 21.2167 18.6465 23.6866C18.6499 26.153 16.9023 28.1783 14.6908 28.1783ZM29.309 28.1783C27.1357 28.1783 25.3534 26.153 25.3534 23.6866C25.3534 21.2202 27.0976 19.1914 29.309 19.1914C31.5204 19.1914 33.3027 21.2167 33.2647 23.6866C33.2647 26.153 31.5204 28.1783 29.309 28.1783Z" fill="url(#paint0_linear_426_133)"/>
<defs>
<linearGradient id="paint0_linear_426_133" x1="-1.76157e-06" y1="4.50245" x2="43.9391" y2="39.7161" gradientUnits="userSpaceOnUse">
<stop stop-color="#E51A1A"/>
</linearGradient>
</defs>
</svg>
