<svg width="44" height="44" viewBox="0 0 44 44" fill="none" xmlns="http://www.w3.org/2000/svg">
<path d="M43.3988 8.26167C41.802 8.9845 40.086 9.47304 38.2849 9.69276C40.1233 8.56791 41.535 6.78683 42.1998 4.66467C40.4795 5.70606 38.5739 6.46244 36.5458 6.87012C34.9216 5.10378 32.6076 4 30.0467 4C25.1293 4 21.1427 8.06917 21.1427 13.0882C21.1427 13.8005 21.2216 14.4942 21.3733 15.1593C13.9734 14.7803 7.41267 11.1621 3.0212 5.66361C2.25479 7.0059 1.8157 8.5671 1.8157 10.2327C1.8157 13.3857 3.38774 16.1675 5.77682 17.7972C4.31718 17.7501 2.94437 17.3413 1.74379 16.6606C1.74316 16.6985 1.74316 16.7366 1.74316 16.7748C1.74316 21.1782 4.8123 24.8516 8.88548 25.6864C8.13828 25.8941 7.35171 26.0051 6.53958 26.0051C5.96588 26.0051 5.40806 25.9482 4.86452 25.8421C5.99747 29.4529 9.28568 32.0804 13.1819 32.1538C10.1346 34.5913 6.29543 36.0443 2.12398 36.0443C1.40535 36.0443 0.696565 36.0013 0 35.9174C3.94032 38.496 8.62054 40.0005 13.6487 40.0005C30.0259 40.0005 38.9816 26.1519 38.9816 14.1421C38.9816 13.748 38.973 13.356 38.9559 12.9663C40.6954 11.685 42.205 10.0842 43.3988 8.26167Z" fill="#E51A1A"/>
</svg>
