<svg width="48" height="48" viewBox="0 0 48 48" fill="none" xmlns="http://www.w3.org/2000/svg">
<path d="M39.1252 15.6045C38.0003 16.0462 36.8016 16.339 35.5519 16.4811C36.8376 15.794 37.8188 14.7143 38.2801 13.4129C37.0815 14.0526 35.758 14.5045 34.3476 14.7566C33.2094 13.6719 31.5873 13 29.8176 13C26.3842 13 23.6201 15.4945 23.6201 18.5525C23.6201 18.9925 23.6617 19.4156 23.7638 19.8184C18.608 19.5933 14.0459 17.3814 10.9812 14.012C10.4461 14.8429 10.1323 15.794 10.1323 16.8179C10.1323 18.7404 11.2383 20.4445 12.8869 21.4311C11.8906 21.4142 10.9131 21.1553 10.085 20.7474C10.085 20.7644 10.085 20.7864 10.085 20.8084C10.085 23.5059 12.2347 25.7466 15.0536 26.2627C14.5488 26.3863 13.9986 26.4455 13.4277 26.4455C13.0306 26.4455 12.6298 26.4252 12.2536 26.3507C13.0571 28.5491 15.3372 30.1652 18.0484 30.2177C15.9384 31.6951 13.2594 32.5852 10.3592 32.5852C9.85057 32.5852 9.36279 32.5649 8.875 32.5091C11.6221 34.0948 14.8778 35.0002 18.3887 35.0002C29.8006 35.0002 36.0397 26.5386 36.0397 19.2041C36.0397 18.9587 36.0303 18.7217 36.017 18.4865C37.2478 17.7047 38.282 16.7282 39.1252 15.6045Z" fill="white"/>
</svg>
