<svg width="242" height="46" viewBox="0 0 242 46" fill="none" xmlns="http://www.w3.org/2000/svg">
<path d="M56.6002 12.76V8.8H77.3002V12.76H69.0202V34H64.8802V12.76H56.6002ZM79.8104 34V15.64H83.5904V18.34H83.7704C84.0344 17.836 84.4184 17.356 84.9224 16.9C86.0264 15.94 87.3224 15.46 88.8104 15.46H90.9704V19.06H88.6304C87.1664 19.06 85.9544 19.528 84.9944 20.464C84.0584 21.376 83.5904 22.588 83.5904 24.1V34H79.8104ZM95.2057 31.732C93.5737 29.956 92.7577 27.652 92.7577 24.82C92.7577 21.988 93.5737 19.696 95.2057 17.944C96.8617 16.168 98.9257 15.28 101.398 15.28C102.958 15.28 104.386 15.736 105.682 16.648C106.234 17.032 106.726 17.476 107.158 17.98H107.338V15.64H111.118V34H107.338V31.48H107.158C106.798 31.984 106.306 32.464 105.682 32.92C104.386 33.88 102.958 34.36 101.398 34.36C98.9257 34.36 96.8617 33.484 95.2057 31.732ZM98.1577 20.284C97.1977 21.34 96.7177 22.852 96.7177 24.82C96.7177 26.788 97.1977 28.3 98.1577 29.356C99.1177 30.412 100.438 30.94 102.118 30.94C103.702 30.94 104.962 30.412 105.898 29.356C106.858 28.276 107.338 26.764 107.338 24.82C107.338 22.876 106.858 21.376 105.898 20.32C104.962 19.24 103.702 18.7 102.118 18.7C100.438 18.7 99.1177 19.228 98.1577 20.284ZM115.712 12.292C115.28 11.86 115.064 11.332 115.064 10.708C115.064 10.084 115.28 9.556 115.712 9.124C116.144 8.668 116.672 8.44 117.296 8.44C117.92 8.44 118.448 8.668 118.88 9.124C119.336 9.556 119.564 10.084 119.564 10.708C119.564 11.332 119.336 11.86 118.88 12.292C118.448 12.724 117.92 12.94 117.296 12.94C116.672 12.94 116.144 12.724 115.712 12.292ZM115.424 34V15.64H119.204V34H115.424ZM123.51 34V15.64H127.29V18.16H127.47C127.758 17.68 128.202 17.2 128.802 16.72C130.098 15.76 131.574 15.28 133.23 15.28C135.51 15.28 137.274 15.94 138.522 17.26C139.794 18.58 140.43 20.5 140.43 23.02V34H136.65V23.38C136.65 21.772 136.29 20.596 135.57 19.852C134.874 19.084 133.794 18.7 132.33 18.7C130.866 18.7 129.654 19.204 128.694 20.212C127.758 21.196 127.29 22.492 127.29 24.1V34H123.51ZM143.488 34V30.04L152.092 23.956C153.964 22.612 155.308 21.364 156.124 20.212C156.94 19.06 157.348 17.836 157.348 16.54C157.348 15.172 156.928 14.08 156.088 13.264C155.248 12.448 154.108 12.04 152.668 12.04C150.892 12.04 149.56 12.76 148.672 14.2C148.288 14.824 148 15.544 147.808 16.36H143.488C143.704 14.824 144.172 13.444 144.892 12.22C146.596 9.46 149.188 8.08 152.668 8.08C155.332 8.08 157.492 8.872 159.148 10.456C160.828 12.016 161.668 13.984 161.668 16.36C161.668 18.424 161.14 20.284 160.084 21.94C159.028 23.572 157.336 25.192 155.008 26.8L151.408 29.32L149.788 30.04V30.22L151.948 30.04H161.668V34H143.488ZM165.635 34V8.8H183.815V12.76H169.775V19.24H181.115V23.2H169.775V30.04H183.815V34H165.635ZM188.616 31.732C186.984 29.956 186.168 27.652 186.168 24.82C186.168 21.988 186.984 19.696 188.616 17.944C190.272 16.168 192.336 15.28 194.808 15.28C196.368 15.28 197.796 15.736 199.092 16.648C199.644 17.032 200.136 17.476 200.568 17.98H200.748V15.64H204.528V34H200.748V31.48H200.568C200.208 31.984 199.716 32.464 199.092 32.92C197.796 33.88 196.368 34.36 194.808 34.36C192.336 34.36 190.272 33.484 188.616 31.732ZM191.568 20.284C190.608 21.34 190.128 22.852 190.128 24.82C190.128 26.788 190.608 28.3 191.568 29.356C192.528 30.412 193.848 30.94 195.528 30.94C197.112 30.94 198.372 30.412 199.308 29.356C200.268 28.276 200.748 26.764 200.748 24.82C200.748 22.876 200.268 21.376 199.308 20.32C198.372 19.24 197.112 18.7 195.528 18.7C193.848 18.7 192.528 19.228 191.568 20.284ZM208.834 34V15.64H212.614V18.34H212.794C213.058 17.836 213.442 17.356 213.946 16.9C215.05 15.94 216.346 15.46 217.834 15.46H219.994V19.06H217.654C216.19 19.06 214.978 19.528 214.018 20.464C213.082 21.376 212.614 22.588 212.614 24.1V34H208.834ZM222.861 34V15.64H226.641V18.16H226.821C227.109 17.68 227.553 17.2 228.153 16.72C229.449 15.76 230.925 15.28 232.581 15.28C234.861 15.28 236.625 15.94 237.873 17.26C239.145 18.58 239.781 20.5 239.781 23.02V34H236.001V23.38C236.001 21.772 235.641 20.596 234.921 19.852C234.225 19.084 233.145 18.7 231.681 18.7C230.217 18.7 229.005 19.204 228.045 20.212C227.109 21.196 226.641 22.492 226.641 24.1V34H222.861Z" fill="white"/>
<path d="M37.292 7.63526C34.6067 4.75874 31.6687 3.30078 28.5582 3.30078C25.0299 3.30078 21.8472 5.45196 19.9841 9.00634C18.1256 5.45196 14.9664 3.30078 11.4735 3.30078C8.37978 3.30078 5.52465 4.71667 2.74575 7.62993C-0.440911 10.9697 -1.79327 18.6586 3.95843 24.409C6.68923 27.1404 19.4066 40.3604 19.5343 40.4934C19.6606 40.6245 19.8351 40.6987 20.0163 40.6987C20.1981 40.6987 20.3719 40.6245 20.4983 40.4934C20.626 40.3604 33.344 27.1404 36.0747 24.409C41.7695 18.7141 40.4412 11.0077 37.292 7.63526ZM31.9982 20.9783C31.9982 22.2684 30.9487 23.318 29.6584 23.318C29.2493 23.318 28.871 23.203 28.5361 23.0185C28.2352 23.9638 27.3595 24.655 26.316 24.655C25.0259 24.655 23.9763 23.6055 23.9763 22.3153V21.35H15.9544V22.3153C15.9544 23.6054 14.9049 24.655 13.6147 24.655C12.5711 24.655 11.6955 23.9638 11.3946 23.0185C11.0597 23.203 10.6814 23.318 10.2723 23.318C8.98213 23.318 7.93255 22.2685 7.93255 20.9783V17.6358C7.93255 16.3456 8.98205 15.2961 10.2723 15.2961C10.6814 15.2961 11.0597 15.4111 11.3946 15.5956C11.6955 14.6503 12.5712 13.9591 13.6147 13.9591C14.9048 13.9591 15.9544 15.0086 15.9544 16.2988V17.339H23.9763V16.2989C23.9763 15.0087 25.0258 13.9591 26.316 13.9591C27.3596 13.9591 28.2352 14.6503 28.5361 15.5956C28.871 15.4111 29.2493 15.2961 29.6584 15.2961C30.9486 15.2961 31.9982 16.3456 31.9982 17.6359V20.9783Z" fill="white"/>
</svg>
